<?xml version="1.0" encoding="utf-8"?>
<!-- Generator: Adobe Illustrator 26.0.3, SVG Export Plug-In . SVG Version: 6.00 Build 0)  -->
<svg version="1.1" id="Layer_1" xmlns="http://www.w3.org/2000/svg" xmlns:xlink="http://www.w3.org/1999/xlink" x="0px" y="0px"
	 viewBox="0 0 32 32" style="enable-background:new 0 0 32 32;" xml:space="preserve">
<style type="text/css">
	.st0{fill:#191919;}
</style>
<g>
	<path class="st0" d="M19.5,16.9l0.4-2.7h-2.6v-1.8c0-0.7,0.4-1.5,1.5-1.5H20V8.7c0,0-1.1-0.2-2.1-0.2c-2.1,0-3.5,1.3-3.5,3.7v2.1
		H12v2.7h2.4v6.6h1.5h1.5v-6.6H19.5z"/>
	<path class="st0" d="M16,32C7.2,32,0,24.8,0,16S7.2,0,16,0s16,7.2,16,16S24.8,32,16,32z M16,1C7.7,1,1,7.7,1,16s6.7,15,15,15
		s15-6.7,15-15S24.3,1,16,1z"/>
</g>
</svg>
