<?xml version="1.0" encoding="utf-8"?>
<!-- Generator: Adobe Illustrator 26.0.3, SVG Export Plug-In . SVG Version: 6.00 Build 0)  -->
<svg version="1.1" id="Layer_1" xmlns="http://www.w3.org/2000/svg" xmlns:xlink="http://www.w3.org/1999/xlink" x="0px" y="0px"
	 viewBox="0 0 32 32" style="enable-background:new 0 0 32 32;" xml:space="preserve">
<style type="text/css">
	.st0{fill:#191919;}
</style>
<g>
	<g>
		<path class="st0" d="M16,10.3c1.9,0,2.1,0,2.8,0c0.7,0,1.1,0.1,1.3,0.2c0.3,0.1,0.6,0.3,0.8,0.5c0.2,0.2,0.4,0.5,0.5,0.8
			c0.1,0.2,0.2,0.6,0.2,1.3c0,0.7,0,1,0,2.8s0,2.1,0,2.8c0,0.7-0.1,1.1-0.2,1.3c-0.1,0.3-0.3,0.6-0.5,0.8c-0.2,0.2-0.5,0.4-0.8,0.5
			c-0.2,0.1-0.6,0.2-1.3,0.2c-0.7,0-1,0-2.8,0s-2.1,0-2.8,0c-0.7,0-1.1-0.1-1.3-0.2c-0.3-0.1-0.6-0.3-0.8-0.5
			c-0.2-0.2-0.4-0.5-0.5-0.8c-0.1-0.2-0.2-0.6-0.2-1.3c0-0.7,0-1,0-2.8s0-2.1,0-2.8c0-0.7,0.1-1.1,0.2-1.3c0.1-0.3,0.3-0.6,0.5-0.8
			c0.2-0.2,0.5-0.4,0.8-0.5c0.2-0.1,0.6-0.2,1.3-0.2C13.9,10.3,14.1,10.3,16,10.3 M16,9c-1.9,0-2.1,0-2.9,0c-0.7,0-1.3,0.2-1.7,0.3
			c-0.5,0.2-0.9,0.4-1.2,0.8c-0.4,0.4-0.6,0.8-0.8,1.2c-0.2,0.4-0.3,1-0.3,1.7c0,0.7,0,1,0,2.9c0,1.9,0,2.1,0,2.9
			c0,0.7,0.2,1.3,0.3,1.7c0.2,0.5,0.4,0.9,0.8,1.2c0.4,0.4,0.8,0.6,1.2,0.8c0.4,0.2,1,0.3,1.7,0.3c0.7,0,1,0,2.9,0s2.1,0,2.9,0
			c0.7,0,1.3-0.2,1.7-0.3c0.5-0.2,0.9-0.4,1.2-0.8c0.4-0.4,0.6-0.8,0.8-1.2c0.2-0.4,0.3-1,0.3-1.7c0-0.7,0-1,0-2.9s0-2.1,0-2.9
			c0-0.7-0.2-1.3-0.3-1.7c-0.2-0.5-0.4-0.9-0.8-1.2c-0.4-0.4-0.8-0.6-1.2-0.8c-0.4-0.2-1-0.3-1.7-0.3C18.1,9,17.9,9,16,9L16,9z"/>
		<path class="st0" d="M16,12.4c-2,0-3.6,1.6-3.6,3.6s1.6,3.6,3.6,3.6s3.6-1.6,3.6-3.6S18,12.4,16,12.4z M16,18.3
			c-1.3,0-2.3-1-2.3-2.3s1-2.3,2.3-2.3c1.3,0,2.3,1,2.3,2.3S17.3,18.3,16,18.3z"/>
		<circle class="st0" cx="19.7" cy="12.3" r="0.8"/>
	</g>
	<path class="st0" d="M16,32C7.2,32,0,24.8,0,16S7.2,0,16,0s16,7.2,16,16S24.8,32,16,32z M16,1C7.7,1,1,7.7,1,16s6.7,15,15,15
		s15-6.7,15-15S24.3,1,16,1z"/>
</g>
</svg>
