<?xml version="1.0" encoding="utf-8"?>
<!-- Generator: Adobe Illustrator 26.0.3, SVG Export Plug-In . SVG Version: 6.00 Build 0)  -->
<svg version="1.1" id="Layer_1" xmlns="http://www.w3.org/2000/svg" xmlns:xlink="http://www.w3.org/1999/xlink" x="0px" y="0px"
	 viewBox="0 0 32 32" style="enable-background:new 0 0 32 32;" xml:space="preserve">
<style type="text/css">
	.st0{fill-rule:evenodd;clip-rule:evenodd;fill:#191919;}
	.st1{fill:#191919;}
</style>
<g>
	<path class="st0" d="M21.3,12.2c-0.7-0.1-1.2-0.5-1.7-1c-0.6-0.7-0.9-1.5-0.9-2.4h-0.7h-1.7v5.8v4c0,1.2-0.9,2.1-2,2.1
		c-0.7,0-1.3-0.3-1.6-0.9c-0.2-0.3-0.4-0.8-0.4-1.2c0-1.2,0.9-2.1,2-2.1c0.2,0,0.4,0,0.6,0.1v-2.5c-0.2,0-0.4-0.1-0.6-0.1h-0.1
		c-2.4,0.1-4.3,2.1-4.3,4.6c0,1.2,0.4,2.3,1.2,3.1c0.8,0.9,1.9,1.4,3.2,1.4c2.4,0,4.4-2,4.4-4.5v-5.1c0.9,0.8,2.1,1.3,3.3,1.2v-2.5
		C21.8,12.3,21.5,12.3,21.3,12.2"/>
	<path class="st1" d="M16,32C7.2,32,0,24.8,0,16S7.2,0,16,0s16,7.2,16,16S24.8,32,16,32z M16,1C7.7,1,1,7.7,1,16s6.7,15,15,15
		s15-6.7,15-15S24.3,1,16,1z"/>
</g>
</svg>
