<?xml version="1.0" encoding="utf-8"?>
<!-- Generator: Adobe Illustrator 26.0.3, SVG Export Plug-In . SVG Version: 6.00 Build 0)  -->
<svg version="1.1" id="Layer_1" xmlns="http://www.w3.org/2000/svg" xmlns:xlink="http://www.w3.org/1999/xlink" x="0px" y="0px"
	 viewBox="0 0 32 32" style="enable-background:new 0 0 32 32;" xml:space="preserve">
<style type="text/css">
	.st0{fill:#191919;}
</style>
<g>
	<g>
		<path class="st0" d="M24,13.4c0.1,0.9-0.1,2-0.7,2c-1,0.1-0.5-1-0.4-1.6c0-1.9-1.5-3.2-3.1-3.2c-0.4,0-1.5,0.3-1.3-0.6
			c0.1-0.4,0.4-0.4,0.8-0.5C21.8,9.2,23.8,11,24,13.4z"/>
		<path class="st0" d="M19.7,15.5c1.1,0.6,2.5,0.9,2.2,2.8c-0.1,0.4-0.3,1-0.6,1.4c-1.9,2.7-7.6,3.8-11.1,1.8
			c-1.2-0.7-2.4-1.7-2.2-3.7c0.2-1.7,1.3-3,2.4-4.2c1.1-1.1,2.2-1.9,3.7-2.3c1.7-0.4,2.1,1,1.7,2.3c1-0.1,3-1.1,3.9-0.1
			C20.1,14.1,20,14.9,19.7,15.5z M18.5,19.9c0.4-0.4,0.7-1,0.7-1.8c0-2.2-2.8-3.1-5-2.9c-1.2,0.1-2,0.4-2.9,0.9
			c-0.7,0.4-1.5,1.1-1.7,2.1c-0.5,2.3,2,3.3,3.8,3.4C15.5,21.7,17.6,21,18.5,19.9z"/>
		<path class="st0" d="M21.8,13.4c0.1,0.7-0.1,1.3-0.5,1.3c-0.7,0-0.4-0.5-0.4-1c0-0.4-0.3-0.8-0.6-0.9c-0.5-0.2-1.3,0.2-1.3-0.5
			c0-0.5,0.5-0.5,0.7-0.5C20.8,11.6,21.7,12.4,21.8,13.4z"/>
		<path class="st0" d="M16.6,17.9c1,2.9-4,4.3-4.9,1.8c-0.6-1.7,0.9-3,2.4-3.2C15.3,16.4,16.3,17,16.6,17.9z M14.3,18.4
			c0.2,0.4,0.7,0.1,0.6-0.2C14.9,17.9,14.3,17.9,14.3,18.4z M13.5,19.9c0.8-0.2,0.9-1.8-0.3-1.5C12.1,18.7,12.3,20.2,13.5,19.9z"/>
	</g>
	<path class="st0" d="M16,32C7.2,32,0,24.8,0,16S7.2,0,16,0s16,7.2,16,16S24.8,32,16,32z M16,1C7.7,1,1,7.7,1,16s6.7,15,15,15
		s15-6.7,15-15S24.3,1,16,1z"/>
</g>
</svg>
