<?xml version="1.0" encoding="utf-8"?>
<!-- Generator: Adobe Illustrator 26.0.3, SVG Export Plug-In . SVG Version: 6.00 Build 0)  -->
<svg version="1.1" id="Layer_1" xmlns="http://www.w3.org/2000/svg" xmlns:xlink="http://www.w3.org/1999/xlink" x="0px" y="0px"
	 viewBox="0 0 32 32" style="enable-background:new 0 0 32 32;" xml:space="preserve">
<style type="text/css">
	.st0{fill:#191919;}
</style>
<g>
	<g>
		<path class="st0" d="M23.7,12.1c-0.2-0.7-0.7-1.2-1.4-1.4C21,10.4,16,10.4,16,10.4s-5,0-6.3,0.3c-0.7,0.2-1.2,0.7-1.4,1.4
			C8,13.4,8,16,8,16s0,2.6,0.3,3.9c0.2,0.7,0.7,1.2,1.4,1.4c1.2,0.3,6.3,0.3,6.3,0.3s5,0,6.3-0.3c0.7-0.2,1.2-0.7,1.4-1.4
			C24,18.6,24,16,24,16S24,13.4,23.7,12.1z M14.4,18.4v-4.8l4.2,2.4L14.4,18.4z"/>
	</g>
	<path class="st0" d="M16,32C7.2,32,0,24.8,0,16S7.2,0,16,0s16,7.2,16,16S24.8,32,16,32z M16,1C7.7,1,1,7.7,1,16s6.7,15,15,15
		s15-6.7,15-15S24.3,1,16,1z"/>
</g>
</svg>
